<svg id="Layer_1" fill="current" data-name="Layer 1" xmlns="http://www.w3.org/2000/svg" viewBox="0 0 121.76 17.46"><path d="M1.2,0H6.05A1.19,1.19,0,0,1,7.21.9l1.3,5a1.2,1.2,0,0,0,2.32,0l1.29-5A1.19,1.19,0,0,1,13.28,0h4.84a1.2,1.2,0,0,1,1.2,1.2V16a1.2,1.2,0,0,1-1.2,1.2H16.18A1.2,1.2,0,0,1,15,16V13.63a1.2,1.2,0,0,0-2.37-.29l-.75,2.94a1.21,1.21,0,0,1-1.17.9H8.63a1.21,1.21,0,0,1-1.17-.91l-.75-2.92a1.2,1.2,0,0,0-2.36.3V16a1.2,1.2,0,0,1-1.2,1.2H1.2A1.2,1.2,0,0,1,0,16V1.2A1.2,1.2,0,0,1,1.2,0Z"/><path d="M21.81,11A6.22,6.22,0,0,1,23.73,6.3a7.18,7.18,0,0,1,5.19-1.85,7.15,7.15,0,0,1,5.65,2.17,6.32,6.32,0,0,1,1.54,4.3,6.26,6.26,0,0,1-1.91,4.71,7.28,7.28,0,0,1-5.27,1.83,7.43,7.43,0,0,1-4.85-1.52A6.14,6.14,0,0,1,21.81,11Zm4.78,0a3.75,3.75,0,0,0,.67,2.46,2.15,2.15,0,0,0,1.7.8,2.1,2.1,0,0,0,1.69-.79,3.88,3.88,0,0,0,.66-2.52,3.62,3.62,0,0,0-.67-2.4A2.06,2.06,0,0,0,29,7.73a2.15,2.15,0,0,0-1.72.81A3.72,3.72,0,0,0,26.59,11Z"/><path d="M38,4.73h2.27a1.21,1.21,0,0,1,1.15.85l1,3.36a1.21,1.21,0,0,0,2.3,0l1.07-3.38a1.2,1.2,0,0,1,1.15-.84h2.11a1.2,1.2,0,0,1,1.11,1.68l-4.27,10a1.2,1.2,0,0,1-1.1.73H42.15A1.21,1.21,0,0,1,41,16.44l-4.17-10A1.21,1.21,0,0,1,38,4.73Z"/><path d="M53.62,0H56a1.2,1.2,0,0,1,1.2,1.2V2A1.21,1.21,0,0,1,56,3.25H53.62A1.21,1.21,0,0,1,52.42,2V1.2A1.2,1.2,0,0,1,53.62,0Zm0,4.73H56a1.21,1.21,0,0,1,1.2,1.21V16a1.2,1.2,0,0,1-1.2,1.2H53.62a1.2,1.2,0,0,1-1.2-1.2v-10A1.21,1.21,0,0,1,53.62,4.73Z"/><path d="M74.05,12.14H64.49a3,3,0,0,0,.62,1.71,2.25,2.25,0,0,0,1.8.81,2.76,2.76,0,0,0,1.34-.35,2.73,2.73,0,0,0,.5-.4,1.15,1.15,0,0,1,.93-.33l1.92.18a1.21,1.21,0,0,1,.72,2.08,6.25,6.25,0,0,1-1.14.81,9.5,9.5,0,0,1-4.37.81,8.84,8.84,0,0,1-3.89-.7,5.65,5.65,0,0,1-2.35-2.21A6.69,6.69,0,0,1,59.64,11a6.25,6.25,0,0,1,1.87-4.72,7.07,7.07,0,0,1,5.16-1.81,9.18,9.18,0,0,1,4.22.81,5.44,5.44,0,0,1,2.35,2.35,8.52,8.52,0,0,1,.81,4ZM67.54,9.86a1.2,1.2,0,0,0,.93-2h0a2.34,2.34,0,0,0-3.41.3,3.29,3.29,0,0,0-.55,1.68Z"/><path d="M77.78,0H88.5a1.21,1.21,0,0,1,1.21,1.2V2.49a1.21,1.21,0,0,1-1.21,1.2H83.12a1.21,1.21,0,0,0-1.21,1.2v.6a1.21,1.21,0,0,0,1.21,1.2h4.25a1.2,1.2,0,0,1,1.2,1.2V9a1.2,1.2,0,0,1-1.2,1.2H83.12a1.21,1.21,0,0,0-1.21,1.2V16a1.2,1.2,0,0,1-1.2,1.2H77.78a1.2,1.2,0,0,1-1.2-1.2V1.2A1.2,1.2,0,0,1,77.78,0Z"/><path d="M93.8,0h2.38a1.2,1.2,0,0,1,1.2,1.2V16a1.2,1.2,0,0,1-1.2,1.2H93.8A1.2,1.2,0,0,1,92.6,16V1.2A1.2,1.2,0,0,1,93.8,0Z"/><path d="M101.81,0h2.36a1.21,1.21,0,0,1,1.21,1.2V2a1.21,1.21,0,0,1-1.21,1.21h-2.36A1.2,1.2,0,0,1,100.61,2V1.2A1.2,1.2,0,0,1,101.81,0Zm0,4.73h2.36a1.21,1.21,0,0,1,1.21,1.21V16a1.21,1.21,0,0,1-1.21,1.2h-2.36a1.2,1.2,0,0,1-1.2-1.2v-10A1.2,1.2,0,0,1,101.81,4.73Z"/><path d="M109.71,4.73h2.61a1.21,1.21,0,0,1,1,.61L114,6.51a1.21,1.21,0,0,0,2,.07l.87-1.31a1.22,1.22,0,0,1,1-.54h2.28a1.21,1.21,0,0,1,1,1.91L118.8,10a1.2,1.2,0,0,0,0,1.39l2.74,3.93a1.2,1.2,0,0,1-1,1.89H118a1.2,1.2,0,0,1-1-.6l-1-1.74a1.2,1.2,0,0,0-2-.07l-1.26,1.88a1.22,1.22,0,0,1-1,.53h-2.23a1.21,1.21,0,0,1-1-1.89l2.73-3.93a1.2,1.2,0,0,0,0-1.39l-2.41-3.33A1.21,1.21,0,0,1,109.71,4.73Z"/></svg>